<svg xmlns="http://www.w3.org/2000/svg" xmlns:xlink="http://www.w3.org/1999/xlink" width="81.402" height="81.392" viewBox="0 0 81.402 81.392">
  <defs>
    <clipPath id="clip-path">
      <rect id="Rectangle_36" data-name="Rectangle 36" width="81.402" height="81.392" fill="none"/>
    </clipPath>
  </defs>
  <g id="Groupe_72" data-name="Groupe 72" transform="translate(0 0)">
    <g id="Groupe_71" data-name="Groupe 71" transform="translate(0 0)" clip-path="url(#clip-path)">
      <path id="Tracé_879" data-name="Tracé 879" d="M73.416,17.112a19.4,19.4,0,0,1-1.353,2.8c-1.172,1.679-2.5,3.243-3.718,4.894a4.579,4.579,0,0,0,2.807,7.5c2.167.442,4.386.627,6.582.928,2.15.3,3.495,1.531,3.589,3.648.117,2.6.1,5.218-.019,7.822a3.639,3.639,0,0,1-3.263,3.413c-1.911.278-3.83.52-5.752.714-2.056.208-3.764.928-4.626,2.952a4.8,4.8,0,0,0,1,5.22c1.218,1.5,2.392,3.044,3.533,4.606a3.8,3.8,0,0,1-.167,5.285,67.342,67.342,0,0,1-5.194,5.173,3.784,3.784,0,0,1-5.151.139c-1.7-1.249-3.313-2.6-5.008-3.852-3.146-2.32-6.938-.859-7.667,2.992-.38,2.006-.562,4.051-.819,6.08-.315,2.5-1.455,3.762-3.9,3.886-2.488.125-4.993.1-7.483-.023a3.685,3.685,0,0,1-3.529-3.338c-.272-1.912-.5-3.831-.712-5.752-.225-2.05-.968-3.749-3.006-4.587a4.836,4.836,0,0,0-5.215,1.044c-1.454,1.188-2.954,2.322-4.464,3.439-1.919,1.419-3.666,1.44-5.421-.135A67.7,67.7,0,0,1,9.4,66.893a3.8,3.8,0,0,1-.173-5.282c1.182-1.6,2.44-3.15,3.633-4.745,2.647-3.537.994-7.435-3.384-8-1.916-.248-3.836-.474-5.753-.717A3.735,3.735,0,0,1,.085,44.36c-.118-2.488-.112-4.992.012-7.481a3.7,3.7,0,0,1,3.591-3.645c1.86-.245,3.72-.485,5.582-.709,1.978-.238,3.637-.974,4.478-2.92a4.782,4.782,0,0,0-.965-5.224c-1.217-1.5-2.4-3.041-3.548-4.595a3.777,3.777,0,0,1,.145-5.28,69.491,69.491,0,0,1,5.192-5.175,3.75,3.75,0,0,1,5.145-.165c1.655,1.207,3.239,2.512,4.882,3.736,3.436,2.56,7.341.893,7.919-3.374.259-1.914.483-3.833.725-5.75.284-2.255,1.5-3.585,3.725-3.693,2.546-.123,5.106-.107,7.653.01a3.682,3.682,0,0,1,3.524,3.347c.273,1.912.507,3.83.714,5.751.215,1.991.948,3.643,2.874,4.508a4.734,4.734,0,0,0,5.232-.9c1.509-1.212,3.048-2.388,4.6-3.54,1.9-1.408,3.669-1.419,5.422.163a70.261,70.261,0,0,1,5.044,5.082,12.306,12.306,0,0,1,1.382,2.6M54.784,40.732a14.075,14.075,0,1,0-14.2,14.03,14.117,14.117,0,0,0,14.2-14.03" transform="translate(0 0)" fill="#8c8b8b"/>
    </g>
  </g>
</svg>
