<svg xmlns="http://www.w3.org/2000/svg" width="174.3" height="162.304" viewBox="0 0 174.3 162.304">
  <g id="home" transform="translate(0 -17.047)">
    <g id="Groupe_209" data-name="Groupe 209" transform="translate(0.001 17.047)">
      <g id="Groupe_208" data-name="Groupe 208">
        <path id="Tracé_999" data-name="Tracé 999" d="M171.375,90.393,144.959,63.977V33.462a9.99,9.99,0,0,0-19.981,0V44L105.309,24.327c-9.724-9.719-26.632-9.7-36.334.018L2.925,90.393a9.993,9.993,0,0,0,14.134,14.129L83.1,38.472a5.9,5.9,0,0,1,8.084-.006l66.055,66.057a9.992,9.992,0,1,0,14.134-14.129Z" transform="translate(-0.001 -17.047)" fill="#f79643"/>
        <path id="Tracé_1000" data-name="Tracé 1000" d="M135.1,129.186a4.9,4.9,0,0,0-6.939,0l-58.1,58.08a4.918,4.918,0,0,0-1.437,3.475V233.1a18,18,0,0,0,18,18h28.764V206.557h32.474V251.1H176.63a18,18,0,0,0,18-18V190.742a4.9,4.9,0,0,0-1.437-3.475Z" transform="translate(-44.482 -88.799)" fill="#f79643"/>
      </g>
    </g>
  </g>
</svg>
